# 3ds Max Wavefront OBJ Exporter v0.99 - (c)2007 guruware
# File Created: 01.12.2022 19:58:06

mtllib immale.mtl

#
# object Plane001
#

v  -2.0748 0.0000 -1.5177
v  -2.0748 0.0000 1.5177
v  2.0748 0.0000 1.5177
v  2.0748 0.0000 -1.5177
# 4 vertices

vn 0.0000 1.0000 -0.0000
# 1 vertex normals

vt 0.0000 1.0000 0.0000
vt 0.0000 0.0000 0.0000
vt 1.0000 0.0000 0.0000
vt 1.0000 1.0000 0.0000
# 4 texture coords

o Plane001
g Plane001
usemtl Material__25
s 1
f 1/1/1 2/2/1 3/3/1 4/4/1 
# 1 polygons

